<svg xmlns="http://www.w3.org/2000/svg" viewBox="0 0 532.02 85.41"><defs><style>.cls-1{fill:#3f9cd1;}.cls-2{font-size:49.7px;}.cls-2,.cls-3{fill:#757576;font-family:APHont-Bold, APHont;font-weight:700;}.cls-3{font-size:21.91px;letter-spacing:-0.04em;}</style></defs><g id="Layer_2" data-name="Layer 2"><g id="Layer_1-2" data-name="Layer 1"><path class="cls-1" d="M65.13,47.58s.69-5.12,2.56-4.6,4.1.68,2.39,3.41S65.64,51,65.13,47.58Z" transform="translate(0 0)"/><path class="cls-1" d="M68.72,41.1s2.9-13.83,6.48-14.17,6.49-.34,5.63,3.25S74.55,42.45,72,42.94,68.52,42,68.72,41.1Z" transform="translate(0 0)"/><path class="cls-1" d="M58,39.56s4.26-1.88,6.31-9.73,2-7.68,3.63-10.24S72,9.53,69.4,7.31s-7.68,0-8.19,7.68a28.56,28.56,0,0,1-5.29,15.36C54,32.74,52.85,42,58,39.56Z" transform="translate(0 0)"/><path class="cls-1" d="M45.46,33.66s2.73-.34,2.56-5.29-2.73-5.46-2.56-6.14,1.38,1.19,2.57-6.49S49.37.73,45.45,0s-6.31,7-5.79,12.29,3.07,9.82,2.9,11S39.14,35.71,45.46,33.66Z" transform="translate(0 0)"/><path class="cls-1" d="M11.67,56.7a8.3,8.3,0,0,0-1.2-8.36C7.23,44.42.74,44.28.23,45.11S-.28,49.19,3.82,53,9.28,58.41,11.67,56.7Z" transform="translate(0 0)"/><path class="cls-1" d="M57.06,45.11c-8.87-.52-7.34-2.47-9.55-5.08s-6.46-3.64-7.92-1.93-3.18-4.27-5.05-8.7S32.66,12,29.59,8.58a5.85,5.85,0,0,0-5.12-3.76s-4.78,2.73-4.61,7.34S22.93,30.34,26,35s4.61,16.08,2.73,18.81-4.27,7.51-8.88,10.58,1.89,16.05,8.71,17.24,10.07-2.22,14.34-1,2.69,3.24,5.87,4.6S62.89,80.94,62.2,71c0-5.8-.19-6.83,1.86-9.73S65.94,45.64,57.06,45.11Zm-9.23,11c1.3-2.25,2.81-4.2,4-3.56S52,55.71,50.73,57s-2.86,1.92-3.06,2.25-1.71,4-2.93,2.1c0,0-.64-.66.44-1.92s1.86-.85,2-1.07S46.53,58.38,47.83,56.12Zm-7.2.27c1.11-2.48,1.09-2.42,1.2-3.44s1.06-3.48,2.19-3.52,2,1.61.53,3.72a9.59,9.59,0,0,0-1.85,5.13c0,1-1.63,3.67-2.47,2C40.23,60.25,39.51,58.87,40.63,56.39ZM36.23,53c.53-1.12,1.29-.51,2.15.33S37.1,58.4,37.1,58.4c-.13.27-.66.47-1.23-.21S35.7,54.11,36.23,53Zm.44,7.84c-.85.79-1.17-.28-1-1.35s.75-.65,1.34-.39S36.67,60.84,36.67,60.84ZM51.56,75.13c-1.86.12-2.57.27-2.84-.67a2.8,2.8,0,0,1,2.07-1.94c1.67-.34,3.39,1,3.35,1.31S53.42,75,51.56,75.13Zm5.28-15-.9,1c-1,1.17-4.62,4.11-6.4,4.67S45,69,44.87,70.11a11.41,11.41,0,0,0,.1,4.63c.56,1.77-3.86,3.8-5.9,2.67s-2.16-2.69-3.53-3.27-1.38.28-2.5,0-2.79-4.09-.53-6.53c1.22-1.51,1.48-1.74,1.56-2.93s2.8-4.48,5.23-2.76,2.44.9,3.56.68,2.45.41,2.48,1.16,1.72-.44,3.15-1.21,4.19-3.94,5.66-4.4c1.3-.4,2-.36,2.36-.12C57.27,58.51,56.84,60.08,56.84,60.08Z" transform="translate(0 0)"/><path class="cls-1" d="M39.65,72.13s.21-.34.33-.24.26.18.05.31S39.58,72.38,39.65,72.13Z" transform="translate(0 0)"/><path class="cls-1" d="M40.11,71.79s.64-.85.9-.76.46.18.29.4-.83.65-1,.6S40.07,71.85,40.11,71.79Z" transform="translate(0 0)"/><path class="cls-1" d="M39.42,71.34a1.07,1.07,0,0,0,.75-.46c.39-.48.38-.47.58-.59s.6-.57.5-.8-.53-.25-.82.26a2.07,2.07,0,0,1-.86.89C39.36,70.75,39,71.34,39.42,71.34Z" transform="translate(0 0)"/><path class="cls-1" d="M38.74,70.53s.2.07.35-.28,0-.46,0-.5.06.12.39-.37.57-1,.33-1.16-.66.28-.8.66a6.32,6.32,0,0,0-.15.85C38.83,69.8,38.24,70.47,38.74,70.53Z" transform="translate(0 0)"/><path class="cls-1" d="M37.67,68.23A4.84,4.84,0,0,0,37.36,70a2,2,0,0,1-.42,1.38,2.69,2.69,0,0,1-1,.45c-.41.06-.38,1.16.05,1.46s.77.17,1,.39.08.31.26.51a1,1,0,0,0,1.38-.54c.19-.4.21-.48.44-.61s.64-1,0-1.34-.42-.41-.49-.66-.33-.46-.49-.39-.08-.4-.06-.76.38-1.25.33-1.59-.13-.45-.21-.5-.46.14-.46.14" transform="translate(0 0)"/><path class="cls-1" d="M35.67,71a.62.62,0,0,0,.18-.61c-.09-.38-.54-.59-.6-.55s-.17.26,0,.65S35.45,71.07,35.67,71Z" transform="translate(0 0)"/><text class="cls-2" transform="translate(104.18 49.19)">Face the Children</text><text class="cls-3" transform="translate(106.22 77.74)">Philippine Frontline Ministries, Inc</text></g></g></svg>